PathFileType	4	(X/Y/Z)	Patient4_TMGait_0pt5_02_left_01.trc.trc
DataRate	CameraRate	NumFrames	NumMarkers	Units	OrigDataRate	OrigDataStartFrame	OrigNumFrames
74.866310160428	74.866310160428	5	33	mm	74.866310160428	18	       141
Frame#	Time	Sacral			L.Shoulder			Chest			R.Shoulder			Neck			R.ASIS			L.ASIS			R.Thigh.Superior			R.Thigh.Lateral			R.Thigh.Inferior			R.Patella			L.Thigh.Superior			L.Thigh.Lateral			L.Thigh.Inferior			L.Patella			L.Shank.Superior			L.Shank.Lateral			L.Shank.Inferior			R.Shank.Superior			R.Shank.Lateral			R.Shank.Inferior			R.Heel			R.Midfoot.Superior			R.Midfoot.Lateral			R.Toe			L.Heel			L.Midfoot.Lateral			L.Midfoot.Superior			L.Toe			L.Elbow			L.Wrist			R.Elbow			R.Wrist			
		X1	Y1	Z1	X2	Y2	Z2	X3	Y3	Z3	X4	Y4	Z4	X5	Y5	Z5	X6	Y6	Z6	X7	Y7	Z7	X8	Y8	Z8	X9	Y9	Z9	X10	Y10	Z10	X11	Y11	Z11	X12	Y12	Z12	X13	Y13	Z13	X14	Y14	Z14	X15	Y15	Z15	X16	Y16	Z16	X17	Y17	Z17	X18	Y18	Z18	X19	Y19	Z19	X20	Y20	Z20	X21	Y21	Z21	X22	Y22	Z22	X23	Y23	Z23	X24	Y24	Z24	X25	Y25	Z25	X26	Y26	Z26	X27	Y27	Z27	X28	Y28	Z28	X29	Y29	Z29	X30	Y30	Z30	X31	Y31	Z31	X32	Y32	Z32	X33	Y33	Z33	

18	0.767071428571	593.816715681649	1010.161367120420	534.145284707373	775.624470181476	1440.413522597392	362.907960670593	882.436316162725	1360.460638909311	515.739112187566	808.878337060933	1428.737913274156	696.672601741609	784.309122754665	1493.820123250671	517.071543923457	822.051116231057	939.902920295031	643.655955691274	801.323337647726	961.009550385670	369.046648764792	837.765918485605	732.316347841302	611.604112355329	746.883436231924	631.866260861568	673.650473037135	812.289691362498	572.670926376199	590.699421008645	801.540153417909	486.586151804814	595.039545180359	874.627530937303	777.162922252896	401.321962119227	832.833125222684	650.978531792469	319.309564148226	930.180243169824	590.425396546625	387.974724117704	958.827992965751	526.324170701600	385.743148113568	944.575794250781	455.239731785655	373.298343598253	886.169907724012	325.651396041628	313.215179248551	969.401674675254	226.896713076458	374.391704626362	769.561629377616	398.656428227655	601.798122897323	692.643538356940	298.133084133752	661.767224342013	728.644493829954	202.800439589189	597.350188079266	586.400808053017	42.000867429690	562.507667543709	756.529165325915	96.952681456252	602.384355763001	667.788850613404	35.772247760328	639.413432009959	875.673071370121	47.318504751518	633.286011099895	886.269601067238	43.835588048353	403.152988372797	965.845584391675	52.171737211604	329.053032002586	1032.352178746230	131.138216118622	355.517807282784	1168.199400359370	106.869890587670	339.488077335001	669.310165407190	1106.024800416906	239.842603757853	673.081506914520	847.672095342006	208.969370239329	921.580841872072	1108.674163578640	805.043590351359	1156.205319026430	1164.991082180591	730.549443741698	
19	0.780428571429	594.205955749829	1009.363836320798	532.828039916436	774.724010313941	1439.532929595954	360.292384006518	881.953729485465	1360.139702353865	513.099665461293	808.431474484768	1428.630316426972	693.954035300625	783.516184142780	1493.216264481475	514.327739671219	822.484081428499	939.568259701916	642.337007800832	801.759483660891	959.860766462867	367.674313035299	836.588555625506	731.355397846920	610.732036664318	744.675396861288	631.509524512614	672.926159966246	809.330197958874	571.683827720867	590.076053161374	797.704249653379	485.607180405799	594.310642669465	875.109510455513	775.857404413732	399.909153846044	831.405866274498	649.057470746231	319.046586234121	929.437923536504	588.809615615156	386.652626481835	957.401108559595	524.439891988608	384.988068210475	942.793929949361	453.004581822149	372.930289292343	883.155950458221	323.689129357190	313.702508191506	966.093332896582	224.620272228612	374.632598671357	765.091793308109	397.935224613853	601.222707519460	687.572950055098	298.015850952614	661.433179122702	722.716251595309	202.380242665152	597.023350726999	579.614989848876	41.908006710102	562.516578216846	749.720080255211	96.819455152581	602.206861247509	660.993018066716	35.747458610538	639.532263614256	868.890745196893	47.274393126724	633.283587413377	881.509429210810	43.206186714628	404.404635958512	960.700670999750	50.233188703864	329.782081488603	1028.575175528861	127.941377789091	355.772767322335	1163.827043985393	101.434666104802	338.929998090173	665.476715546483	1106.382551581914	237.514331812485	666.827833791049	847.977082214616	207.282825524557	924.315353558012	1110.181352064492	801.603035582016	1153.636215514435	1178.312870380584	722.782526904461	
20	0.793785714286	594.913734004004	1008.404669601318	531.269322033794	773.851351427052	1438.553173171850	357.466493902268	881.499709789132	1359.880305680063	510.336854492331	807.821899871668	1428.551305815408	691.054267189051	782.614564535245	1492.563316428527	511.363051547757	823.229147317665	939.195999540414	640.982123367782	802.653524164471	958.638970969200	366.281552314828	835.762438608847	730.315552244712	609.881919084301	742.681419083683	631.096140989569	672.107173951903	806.627701650383	570.610420325187	589.426353960859	794.059949050992	484.544167591413	593.515354022994	875.936594055087	774.169211399172	398.484390099605	829.987449316084	646.897218840249	318.842413745169	928.564123169608	586.812576090404	385.478164415051	955.609937141423	521.985314543621	384.376436015828	940.497042396751	450.176089959993	372.644184006116	879.188937398377	321.332742598617	314.264490151127	961.466878095822	221.672646119064	374.982454419715	760.792922434631	397.172852400646	600.584769703115	682.617360840584	297.913907656583	661.052658786884	716.859636195308	201.940109265017	596.669773202568	572.843729951952	41.808103148491	562.528461447645	742.926739899423	96.658840799301	601.996969499619	654.210532587241	35.711453391495	639.644649709109	862.129669665730	47.162494132755	633.290702141850	874.736072658912	42.305980530441	405.563028556461	953.589551321413	47.905892959889	330.448085410706	1023.119484997043	123.955388540667	356.216232898174	1157.680604698216	94.685208788344	338.540056101328	661.978719976195	1106.515327881961	235.141934878879	661.628937750025	848.007982598151	205.747416683219	926.900919467395	1111.729375630492	798.210292689441	1150.531165802222	1190.658075693897	715.200648488716	
21	0.807142857143	595.909312591394	1007.317612383621	529.487500073730	773.026083124725	1437.487113912051	354.447822797359	881.093173235516	1359.682489580313	507.461084609821	807.084080873992	1428.507596286962	687.989285223073	781.640758428166	1491.876554831425	508.187271573036	824.261623667455	938.771707046224	639.563483159742	803.935558673492	957.385745387116	364.859771357945	835.305189104310	729.204787572486	608.999897590741	740.955682536093	630.624511122842	671.153051003687	804.232530469205	569.458129521920	588.694863861296	790.674852679244	483.394333476779	592.606449890261	876.987688669198	772.125181864653	397.037167250385	828.551168512856	644.594145516410	318.631601375130	927.518489769777	584.514294641056	384.437376895272	953.438188675611	519.087566462857	383.880839548236	937.758084122244	446.931074792375	372.392343603280	874.527239484235	318.677482529008	314.860417440849	955.902999038607	218.262911469635	375.420057859843	756.719804378055	396.369536295646	599.847100822163	677.827279717825	297.842650870174	660.600654977781	711.105330396571	201.488629968620	596.271831209808	566.095050323330	41.726806510861	562.542019024766	736.162533524666	96.477671252065	601.753521860837	647.451064749370	35.673212689696	639.736151443176	855.399718264277	46.958791576120	633.308028596161	866.548811170746	41.240026030904	406.615959043245	945.127609046971	45.378674414717	331.064795389334	1016.485368691875	119.459674482466	356.870135457369	1150.294836688903	87.069797906554	338.403823483802	658.874924723091	1106.406090353100	232.739246945764	657.437860245688	847.745283030736	204.335197889901	929.324861765458	1113.291748726650	794.892645520141	1147.045243968336	1201.959681284500	707.852168541938	
22	0.820500000000	597.138839812475	1006.158363734412	527.511418294422	772.264399691077	1436.364230187016	351.264328194529	880.754082658217	1359.550462405300	504.483498078444	806.274051855193	1428.513570495795	684.782961385135	780.643291390105	1491.184113578860	504.820341312130	825.535811177997	938.290064858213	638.042975569932	805.506302473816	956.161604737657	363.390224869012	835.208097085150	728.045268201426	608.019663638810	739.539825830072	630.104390824783	670.025177201539	802.185016704997	568.246306493097	587.827576260236	787.612738076383	482.163271297706	591.544309887161	878.146373458900	769.812296395302	395.545640235730	827.103612665012	642.274661214916	318.346394291035	926.311848124157	582.047502690954	383.499595239895	950.940922065163	515.930847266149	383.455137842431	934.706357192843	443.487987296623	372.119361839165	869.474445204650	315.871072768878	315.433484592027	949.803806062114	214.640786199208	375.905943255357	752.920689641014	395.533604116370	598.978666244110	673.246371990015	297.825837977247	660.054387600706	705.483388236255	201.044268213351	595.817813802659	559.378163233122	41.703566922491	562.557906766123	729.448004559123	96.292612294368	601.486542806597	640.725731394794	35.650225286009	639.795751052099	848.710988242823	46.640544578799	633.336359608133	857.557759585507	40.134398403658	407.555422113561	935.926829177408	42.862691642894	331.634085607734	1009.167930871904	114.781395151942	357.714259295319	1142.201132291731	79.106233488938	338.536668304456	656.231000093929	1106.051411698403	230.319698962472	654.215178444068	847.190037457305	203.016877845202	931.568429658716	1114.837806112638	791.667105585470	1143.332326311573	1212.163625924547	700.778104312540	
